<svg width="48" height="48" viewBox="0 0 48 48" fill="none" xmlns="http://www.w3.org/2000/svg">
<path d="M24.5814 18.9767C25.4 18.9767 26.0698 18.307 26.0698 17.4884C26.0698 16.6698 25.4 16 24.5814 16C23.7628 16 23.093 16.6698 23.093 17.4884C23.093 18.307 23.7628 18.9767 24.5814 18.9767ZM21.8279 21.507L19.7442 32H21.307L22.6465 26.0465L24.2093 27.5349V32H25.6977V26.4186L24.1349 24.9302L24.5814 22.6977C25.5488 23.814 27.0372 24.5581 28.6744 24.5581V23.0698C27.2605 23.0698 26.0698 22.3256 25.4744 21.2837L24.7302 20.093C24.4326 19.6465 23.986 19.3488 23.4651 19.3488C23.2419 19.3488 23.093 19.4233 22.8698 19.4233L19 21.0605V24.5581H20.4884V22.0279L21.8279 21.507Z" fill="#212121"/>
</svg>
