<svg width="48" height="48" viewBox="0 0 48 48" fill="none" xmlns="http://www.w3.org/2000/svg">
<path d="M28 24L32 20L28 16V18.4H24.8V21.6H28V24ZM29.6 27.6C28.6 27.6 27.64 27.44 26.744 27.144C26.464 27.056 26.152 27.12 25.928 27.336L24.168 29.096C21.904 27.944 20.048 26.096 18.896 23.824L20.656 22.056C20.88 21.848 20.944 21.536 20.856 21.256C20.56 20.36 20.4 19.4 20.4 18.4C20.4 17.96 20.04 17.6 19.6 17.6H16.8C16.36 17.6 16 17.96 16 18.4C16 25.912 22.088 32 29.6 32C30.04 32 30.4 31.64 30.4 31.2V28.4C30.4 27.96 30.04 27.6 29.6 27.6Z" fill="#212121"/>
</svg>
