<svg width="48" height="48" viewBox="0 0 48 48" fill="none" xmlns="http://www.w3.org/2000/svg">
<path d="M24 16C19.584 16 16 19.584 16 24C16 28.416 19.584 32 24 32C28.416 32 32 28.416 32 24C32 19.584 28.416 16 24 16ZM25.128 28.872V30.4H22.992V28.856C21.624 28.568 20.464 27.688 20.376 26.136H21.944C22.024 26.976 22.6 27.632 24.064 27.632C25.632 27.632 25.984 26.848 25.984 26.36C25.984 25.696 25.632 25.072 23.848 24.648C21.864 24.168 20.504 23.352 20.504 21.712C20.504 20.336 21.616 19.44 22.992 19.144V17.6H25.128V19.16C26.616 19.52 27.36 20.648 27.408 21.872H25.84C25.8 20.984 25.328 20.376 24.064 20.376C22.864 20.376 22.144 20.92 22.144 21.688C22.144 22.36 22.664 22.8 24.28 23.216C25.896 23.632 27.624 24.328 27.624 26.344C27.616 27.808 26.52 28.608 25.128 28.872Z" fill="#212121"/>
</svg>
