<svg width="81" height="37" viewBox="0 0 81 37" fill="none" xmlns="http://www.w3.org/2000/svg">
<path d="M61.5441 22.4283C62.9586 22.4283 63.747 23.4718 63.747 24.7703C63.747 24.9327 63.7239 25.095 63.7007 25.2573H60.292C60.3615 26.1153 61.034 26.579 61.776 26.579C62.2862 26.579 62.7963 26.3472 63.1905 26.0457L63.6775 26.9269C63.1673 27.3675 62.4021 27.6457 61.6833 27.6457C60.0369 27.6457 59.0166 26.4631 59.0166 25.0486C59.0166 23.495 60.0601 22.4283 61.5441 22.4283ZM72.5123 22.4283C73.9268 22.4283 74.7152 23.4718 74.7152 24.7703C74.7152 24.9327 74.692 25.095 74.6688 25.2573H71.2601C71.3297 26.1153 72.0021 26.579 72.7441 26.579C73.2543 26.579 73.7644 26.3472 74.1586 26.0457L74.6456 26.9269C74.1355 27.3675 73.3702 27.6457 72.6514 27.6457C71.005 27.6457 69.9847 26.4631 69.9847 25.0486C69.9847 23.495 71.0282 22.4283 72.5123 22.4283ZM47.6775 22.4283C49.1847 22.4283 50.4137 23.5182 50.4137 25.0254C50.4137 26.5559 49.2079 27.6225 47.7007 27.6225C46.1934 27.6225 44.9876 26.5559 44.9876 25.0254C44.9644 23.495 46.1702 22.4283 47.6775 22.4283ZM68.9876 22.5443V27.5066H67.7586V23.5414H66.5528V24.0979C66.5528 26.2544 65.9731 27.5066 64.3268 27.553V26.4631C64.9297 26.3703 65.3702 25.8602 65.3702 24.0979V22.5443H68.9876ZM40.8601 20.5964V23.4022H41.7644L43.3876 20.5964H44.7557L42.8079 23.8892V23.9124L44.8717 27.5066H43.4572L41.7876 24.4921H40.8833V27.5066H39.6311V20.5964H40.8601ZM52.5702 22.5443V26.4399H54.1239V22.5443H55.3065V26.4399H56.8601V22.5443H58.0427V27.5066H51.434V22.5443H52.5702ZM76.9644 22.5443V24.4457H77.5673L78.7731 22.5443H80.1413L78.5644 24.9095V24.9327L80.3268 27.5066H78.8891L77.5905 25.4892H76.9412V27.5066H75.7123V22.5443H76.9644ZM47.6775 23.4486C46.8659 23.4486 46.2166 24.0747 46.2166 25.0022C46.2166 25.9298 46.8659 26.5559 47.6775 26.5559C48.4891 26.5559 49.1615 25.9298 49.1615 25.0022C49.1615 24.0979 48.4891 23.4486 47.6775 23.4486ZM61.4978 23.3559C60.8717 23.3559 60.4079 23.7732 60.292 24.3993H62.4949C62.4949 23.7501 62.0543 23.3559 61.4978 23.3559ZM72.4659 23.3559C71.8398 23.3559 71.376 23.7732 71.2601 24.3993H73.463C73.463 23.7501 73.0224 23.3559 72.4659 23.3559Z" fill="#2D3540"/>
<path d="M16.4426 0.260254C25.2542 0.260254 32.3963 7.40228 32.3963 16.2139C32.3963 19.2052 31.5615 22.011 30.147 24.3994C30.1006 24.4689 29.9847 24.4458 29.9615 24.353C29.405 20.4342 27.0166 18.2776 23.5383 17.6284C23.2368 17.582 23.1905 17.3965 23.5847 17.3501C24.6513 17.2574 26.1586 17.2805 26.947 17.4197C26.9934 17.0255 27.0166 16.6081 27.0166 16.1907C27.0166 10.3704 22.2861 5.63996 16.4658 5.63996C10.6455 5.63996 5.9151 10.3704 5.9151 16.1907C5.9151 22.011 10.6455 26.7414 16.4658 26.7414H16.9528C16.7673 25.7211 16.7209 24.6776 16.7441 23.8892C16.7673 23.24 16.9064 23.1472 17.1847 23.6574C18.6455 26.1849 20.7325 28.4574 24.8137 29.3617C28.1528 30.1037 31.4919 30.9617 35.0861 35.5298C35.4108 35.924 34.9238 36.3414 34.5528 36.0168C30.889 32.7704 27.5499 31.7037 24.5122 31.7037C21.1035 31.7269 18.7847 32.1675 16.4426 32.1675C7.63104 32.1675 0.489014 25.0255 0.489014 16.2139C0.489014 7.40228 7.63104 0.260254 16.4426 0.260254ZM24.5586 25.4661C24.9296 25.4661 25.347 25.6284 25.718 25.953C26.4368 26.5559 26.6455 27.2516 26.2745 27.7617C26.0658 28.0168 25.718 28.1791 25.3238 28.1791C24.9296 28.1791 24.5122 28.04 24.2339 27.7849C23.5847 27.2284 23.3992 26.3008 23.8165 25.7907C23.9789 25.582 24.2339 25.4661 24.5586 25.4661ZM28.0832 22.8458C28.6861 23.0776 28.918 23.982 28.9644 24.3762C29.0571 25.095 28.8484 25.3733 28.6166 25.3733C28.3847 25.3733 28.06 25.095 27.7122 24.5385C27.3644 23.982 27.2252 23.3559 27.4108 23.0313C27.5267 22.8226 27.7818 22.7298 28.0832 22.8458ZM45.1035 4.92112C48.6745 4.92112 51.5731 7.81967 51.5731 11.3907C51.5731 12.6661 51.2021 13.8718 50.5528 14.8921L52.5006 17.1646C52.6397 17.3269 52.5238 17.5588 52.3151 17.5588H49.3934C49.2774 17.5588 49.1615 17.5124 49.0919 17.4197L48.605 16.8168C47.5847 17.4661 46.3789 17.8603 45.1035 17.8603C41.5325 17.8603 38.6339 14.9617 38.6339 11.3907C38.6339 7.81967 41.5325 4.92112 45.1035 4.92112ZM56.605 5.22257C56.7905 5.22257 56.9296 5.3617 56.9296 5.54721V17.2574C56.9296 17.4429 56.7905 17.582 56.605 17.582H54.2165C54.031 17.582 53.8919 17.4429 53.8919 17.2574V5.54721C53.8919 5.3617 54.031 5.22257 54.2165 5.22257H56.605ZM60.9644 5.22257C61.0803 5.22257 61.1802 5.28698 61.2371 5.38897L61.2658 5.45446L63.376 12.3878L65.6948 5.45446C65.7319 5.3617 65.8135 5.28379 65.9159 5.25634L65.9963 5.24576H67.8745C67.9858 5.24576 68.0823 5.29028 68.1402 5.37933L68.176 5.45446L70.4948 12.3878L72.605 5.45446C72.6436 5.33851 72.7306 5.25478 72.839 5.23009L72.9064 5.22257H75.5731C75.6658 5.22257 75.7818 5.26895 75.8977 5.3617C75.9534 5.41736 75.9645 5.50269 75.9548 5.58209L75.9441 5.63996L72.0021 17.3733C71.965 17.4661 71.8833 17.544 71.7809 17.5714L71.7006 17.582H69.5673C69.456 17.582 69.3595 17.5375 69.3016 17.4484L69.2658 17.3733L66.9702 10.5327L64.6745 17.3733C64.6374 17.4661 64.5558 17.544 64.4534 17.5714L64.3731 17.582H62.2397C62.1284 17.582 62.032 17.5375 61.9741 17.4484L61.9383 17.3733L57.9963 5.63996C57.9731 5.54721 57.9731 5.45446 58.0426 5.3617C58.0797 5.2875 58.1614 5.24298 58.24 5.22814L58.2977 5.22257H60.9644ZM79.6079 5.22257C79.747 5.22257 79.8691 5.32479 79.9157 5.47082L79.9325 5.54721V17.2574C79.9325 17.4197 79.826 17.5465 79.6751 17.5757L79.6079 17.582H77.2195C77.0571 17.582 76.9303 17.4755 76.9012 17.3246L76.8948 17.2574V5.54721C76.8948 5.38489 77.0013 5.25808 77.1522 5.22891L77.2195 5.22257H79.6079ZM45.1035 7.79649C43.1325 7.79649 41.6948 9.46605 41.6948 11.3907C41.6948 13.3153 43.1325 14.9617 45.1035 14.9617C45.66 14.9849 46.2165 14.8226 46.7035 14.5675L45.4281 13.0139C45.289 12.8516 45.405 12.5965 45.6137 12.5965H48.3035C48.4426 12.2255 48.5122 11.8081 48.5122 11.3907C48.5122 9.46605 47.0745 7.79649 45.1035 7.79649Z" fill="#FF8C00"/>
</svg>
