<svg width="118" height="29" viewBox="0 0 118 29" fill="none" xmlns="http://www.w3.org/2000/svg">
<path d="M103.73 0.200777C105.851 0.200777 107.869 0.68635 109.679 1.55501C109.963 1.6827 110.249 1.83644 110.532 1.99017L109.291 3.0907L107.43 1.17192L104.223 3.98455L102.335 1.96497L96.4371 7.20715L100.213 11.3236L98.7389 12.6005L102.464 16.717L100.99 17.9956L106.319 23.8511L109.473 20.9864L112.216 24.0561C111.672 24.4652 111.077 24.8751 110.431 25.2322C108.466 26.3327 106.189 26.9695 103.757 26.9695C96.2817 26.9695 90.2036 20.9628 90.2036 13.5734C90.1784 6.23516 96.2565 0.199097 103.731 0.199097L103.73 0.200777ZM101.247 12.7543L104.481 9.88957L107.378 13.087L104.143 15.95L101.247 12.7534V12.7543ZM103.548 18.2779L106.758 15.388L109.679 18.5845L106.445 21.4492L103.549 18.2779H103.548ZM98.9464 7.30796L102.178 4.44493L105.077 7.64064L101.842 10.5054L98.9464 7.30796ZM104.869 5.77479L107.273 3.62668L109.447 6.00414L107.04 8.17746L104.867 5.77479H104.869ZM109.162 15.6182L111.566 13.4709L113.74 15.8735L111.334 18.0225L109.161 15.6182H109.162ZM111.282 20.4512L113.688 18.3031L115.86 20.6806L113.455 22.8539L111.282 20.4512ZM112.265 9.40399L113.87 7.97331L115.317 9.55857L113.714 10.9901L112.264 9.40399H112.265ZM110.196 4.67427L111.801 3.21755L113.25 4.82885L111.645 6.26121L110.197 4.67511L110.196 4.67427ZM114.31 14.1362L115.913 12.7039L117.386 14.2891L115.757 15.7206L114.309 14.1362H114.31ZM107.094 10.581L109.499 8.43369L111.671 10.8111L109.267 12.9593L107.094 10.5818V10.581ZM7.70817 9.42163H7.58636L5.29542 18.1216H3.4237L0.613586 5.76219H2.55672L4.49902 14.9839H4.61999L6.87396 5.76219H8.41805L10.8291 14.9839H10.9518L12.721 5.76219H14.7507L11.9397 18.1216H10.0663L7.70817 9.42163ZM17.2155 12.8593H21.1866C21.1001 11.0296 20.2146 10.297 19.2779 10.297C18.2194 10.297 17.4045 11.1178 17.2147 12.8593H17.2155ZM22.5745 16.1373V17.463C21.7932 17.9167 20.7531 18.2653 19.5031 18.2653C16.5879 18.2653 15.3933 16.4515 15.3933 13.6977C15.3933 11.0472 16.7291 9.13012 19.33 9.13012C21.4974 9.13012 22.8332 10.5415 22.8332 13.3827V14.0279H17.1794C17.1794 16.1197 18.0279 17.0438 19.8156 17.0438C20.7531 17.0438 21.6201 16.7111 22.5736 16.1365L22.5745 16.1373ZM26.8698 16.8682C27.4243 17.1118 28.0325 17.1471 28.466 17.1471C29.7514 17.1471 30.72 16.3448 30.72 13.5204C30.72 11.3068 29.9219 10.5927 28.7609 10.5927C28.067 10.5927 27.5638 10.7843 26.8707 11.1673V16.8674L26.8698 16.8682ZM26.8866 9.87864C27.4075 9.59973 28.2913 9.23177 29.2288 9.23177C31.3795 9.23177 32.5422 10.7313 32.5422 13.5204C32.5422 16.78 30.9796 18.3678 28.466 18.3678C27.5461 18.3678 26.1238 18.0704 25.083 17.5109V5.34719L26.8875 4.91034V9.87864H26.8866ZM40.35 15.4989H40.4357L44.1464 5.75379H46.297V18.1141H44.4236V9.15364H44.2682L40.7297 18.1141H39.6208L36.0823 9.36367H35.9252V18.1141H34.3643V5.75379H36.4645L40.35 15.4989ZM53.9511 13.6977C53.9511 11.3454 52.9984 10.3516 51.8198 10.3516C50.6756 10.3516 49.6859 11.3446 49.6859 13.6977C49.6859 16.0861 50.5882 17.0438 51.8198 17.0438C53.0505 17.0438 53.9519 16.0861 53.9519 13.6969L53.9511 13.6977ZM47.8663 13.6969C47.8663 10.6457 49.5313 9.12928 51.8206 9.12928C54.1115 9.12928 55.7758 10.6448 55.7758 13.696C55.7758 16.6758 54.1981 18.2636 51.8214 18.2636C49.444 18.2636 47.8671 16.6758 47.8671 13.696L47.8663 13.6969ZM57.1468 10.4205C57.9281 9.95005 59.5763 9.13012 61.569 9.13012C63.6508 9.13012 64.4304 9.94837 64.4304 11.7428V18.0553H62.6276V12.1469C62.6276 10.7691 61.953 10.5255 61.0667 10.5255C60.3736 10.5255 59.4873 10.8397 58.9496 11.1531V18.0561H57.1468V10.4197V10.4205ZM68.2495 12.8593H72.2197C72.1357 11.0296 71.2494 10.297 70.3127 10.297C69.2542 10.297 68.4393 11.1178 68.2486 12.8593H68.2495ZM73.6067 16.1373V17.463C72.8271 17.9167 71.7862 18.2653 70.5362 18.2653C67.6253 18.2653 66.4281 16.4515 66.4281 13.6977C66.4281 11.0472 67.7622 9.13012 70.364 9.13012C72.5314 9.13012 73.8688 10.5415 73.8688 13.3827V14.0279H68.215C68.215 16.1197 69.0635 17.0438 70.8495 17.0438C71.7862 17.0438 72.6557 16.7111 73.6067 16.1365V16.1373ZM81.0743 9.13096H82.9309L79.7906 17.8427C78.9228 20.2488 77.8668 21.5038 75.8716 21.5038V20.0774C77.0511 20.0774 77.7786 19.1365 78.1961 17.8444L74.866 9.13096H76.773L78.9942 15.5442H79.0984L81.0743 9.13012V9.13096Z" fill="#006CB4"/>
<path d="M19.3494 26.1546V25.4019C19.992 25.7296 20.6045 25.8925 21.1841 25.8925C21.668 25.8925 22.0377 25.8035 22.2964 25.6237C22.5543 25.4473 22.6845 25.207 22.6845 24.9037C22.6845 24.6013 22.5778 24.3728 22.3653 24.2216C22.1527 24.0704 21.7562 23.8822 21.1766 23.6613C20.9749 23.5856 20.8456 23.5352 20.7884 23.5126L20.4524 23.3723C20.2844 23.3025 20.1752 23.2488 20.1248 23.2143C20.0727 23.1782 19.9861 23.1261 19.8618 23.0572C19.7383 22.9858 19.6552 22.9245 19.6115 22.869C19.5695 22.8136 19.5107 22.743 19.435 22.659C19.3594 22.575 19.309 22.491 19.2838 22.4045C19.2586 22.3205 19.2334 22.2239 19.2116 22.113C19.1881 22.0012 19.178 21.8819 19.178 21.7542C19.178 21.2586 19.3594 20.8595 19.724 20.5554C20.0895 20.253 20.5927 20.1001 21.2362 20.1001C21.8049 20.1001 22.372 20.2051 22.9332 20.4151V21.2115C22.3871 20.9427 21.8428 20.81 21.2967 20.81C20.9103 20.81 20.6246 20.8906 20.4348 21.0536C20.2449 21.2166 20.1491 21.4316 20.1491 21.7005C20.1491 21.9861 20.2449 22.2045 20.4348 22.3532C20.6238 22.5019 20.964 22.6666 21.4513 22.8472C22.2914 23.1564 22.8677 23.4353 23.1835 23.6873C23.4994 23.9376 23.6582 24.3115 23.6582 24.8063C23.6582 25.3272 23.4414 25.7506 23.008 26.0799C22.5745 26.41 21.9788 26.5755 21.2186 26.5755C20.5246 26.5755 19.9013 26.4327 19.3502 26.1538L19.3494 26.1546ZM28.1166 26.4428H27.2992L27.2378 25.9362C26.7439 26.3445 26.2499 26.5495 25.7559 26.5495C25.3426 26.5495 25.0225 26.4361 24.7948 26.2118C24.568 25.9866 24.4546 25.7035 24.4546 25.3582C24.4546 25.1768 24.4865 25.0054 24.5529 24.8374C24.6201 24.6719 24.7293 24.5097 24.8805 24.3526C25.0317 24.193 25.2628 24.067 25.5694 23.9712C25.8769 23.8746 26.2465 23.8267 26.6766 23.8267H27.2118V23.5915C27.2118 23.2 27.1395 22.9337 26.9959 22.7901C26.8514 22.6473 26.6094 22.5759 26.2734 22.5759C25.8584 22.5759 25.3493 22.7472 24.7478 23.0917V22.3919C25.3669 22.1062 25.976 21.9617 26.5725 21.9617C27.1521 21.9617 27.5554 22.0819 27.7788 22.3213C28.0032 22.5599 28.1149 22.9228 28.1149 23.405V26.4411L28.1166 26.4428ZM27.221 24.4392H26.764C25.8214 24.4392 25.3501 24.7223 25.3501 25.2877C25.3501 25.4876 25.414 25.6304 25.54 25.722C25.6677 25.811 25.8256 25.8564 26.0155 25.8564C26.2566 25.8564 26.4893 25.7976 26.7128 25.68C26.9371 25.5649 27.1076 25.4305 27.2219 25.2784V24.4383L27.221 24.4392ZM29.517 28.1944V22.6036C29.769 22.4104 30.0689 22.2549 30.4142 22.1382C30.7587 22.0222 31.0964 21.9634 31.4307 21.9634C32.6253 21.9634 33.2227 22.6943 33.2227 24.1603C33.2227 24.9189 33.0681 25.4985 32.7572 25.9009C32.4464 26.3042 32.0012 26.5033 31.4215 26.5033C31.0199 26.5033 30.6822 26.4008 30.4134 26.1975V28.1927H29.517V28.1944ZM30.405 22.8993V25.5515C30.5201 25.6607 30.6654 25.743 30.8393 25.7993C31.0157 25.8547 31.1669 25.8816 31.2997 25.8816C31.6156 25.8816 31.8642 25.759 32.0457 25.512C32.2271 25.2625 32.3162 24.8122 32.3162 24.1594C32.3162 23.6302 32.2238 23.2404 32.0373 22.9967C31.8508 22.7506 31.6088 22.6271 31.3089 22.6271C30.9695 22.6271 30.6679 22.7195 30.4033 22.8984L30.405 22.8993ZM35.2775 22.0088V26.442H34.382V22.2281L35.2784 22.0096L35.2775 22.0088ZM34.2442 20.7209C34.2442 20.563 34.303 20.4252 34.4206 20.3051C34.5382 20.1858 34.6752 20.1261 34.8297 20.1261C34.9843 20.1261 35.1204 20.1849 35.2389 20.3042C35.3565 20.4244 35.4153 20.5621 35.4153 20.7201C35.4153 20.8772 35.3565 21.0158 35.2389 21.1368C35.1213 21.2544 34.9843 21.3149 34.8289 21.3149C34.6735 21.3149 34.5366 21.2544 34.4173 21.1368C34.3013 21.0158 34.2408 20.8763 34.2408 20.7201L34.2442 20.7209ZM38.6345 25.9354C39.0487 25.9354 39.5049 25.7842 40.0039 25.4817V26.1454C39.5452 26.4142 39.0361 26.5486 38.4791 26.5486C37.7785 26.5486 37.2627 26.347 36.9333 25.9438C36.6023 25.5405 36.4377 24.9777 36.4377 24.2552C36.4377 23.5663 36.6057 23.0119 36.9451 22.5935C37.2845 22.1734 37.7667 21.9634 38.3934 21.9634C38.9454 21.9634 39.373 22.144 39.6788 22.5061C39.9812 22.8674 40.1341 23.3966 40.1341 24.0973V24.4224H37.3257C37.3257 24.9416 37.4307 25.3238 37.6432 25.5674C37.8558 25.8127 38.1868 25.9354 38.6345 25.9354ZM38.3657 22.5498C38.0969 22.5498 37.87 22.6573 37.6852 22.8724C37.5029 23.0891 37.387 23.4101 37.3408 23.8351H39.315C39.2915 23.4033 39.1915 23.0824 39.0126 22.869C38.8361 22.6557 38.6202 22.5498 38.3674 22.5498H38.3657ZM41.2749 26.442V22.6111C41.9823 22.1785 42.7149 21.9626 43.4743 21.9626C43.9851 21.9626 44.3497 22.0684 44.5681 22.2785C44.7865 22.4885 44.8957 22.822 44.8957 23.2765V26.4436H44.0002V23.4781C44.0002 23.1572 43.933 22.9405 43.8011 22.8312C43.6692 22.7195 43.4768 22.6632 43.224 22.6632C42.8795 22.6632 42.5292 22.7691 42.1738 22.9791V26.4428H41.2741L41.2749 26.442ZM47.1489 22.1743H48.5098L48.2948 22.7682H47.1489V25.0785C47.1489 25.6607 47.3959 25.9522 47.8898 25.9522C48.0797 25.9522 48.2712 25.9119 48.4678 25.8304V26.389C48.199 26.494 47.8755 26.547 47.5017 26.547C47.0716 26.547 46.7557 26.4235 46.5549 26.174C46.3533 25.927 46.2525 25.601 46.2525 25.1978V21.5938L47.1489 20.9368V22.1718V22.1743ZM50.2656 22.0079V26.4411H49.3667V22.2281L50.2656 22.0096V22.0079ZM49.2306 20.7201C49.2306 20.5621 49.2894 20.4244 49.407 20.3042C49.5247 20.1849 49.6607 20.1253 49.8162 20.1253C49.9707 20.1253 50.1077 20.1841 50.2253 20.3034C50.3429 20.4235 50.4017 20.5613 50.4017 20.7192C50.4017 20.8763 50.3429 21.015 50.2253 21.1359C50.1077 21.2535 49.9707 21.314 49.8162 21.314C49.6607 21.314 49.5247 21.2535 49.4062 21.1359C49.2886 21.015 49.2298 20.8755 49.2298 20.7192L49.2306 20.7201ZM56.3647 22.3121V23.011C55.9346 22.7195 55.4977 22.5742 55.0558 22.5742C54.8315 22.5742 54.6475 22.6179 54.5039 22.7061C54.3611 22.7934 54.2888 22.9346 54.2888 23.1261C54.2888 23.3084 54.3678 23.4521 54.5266 23.5596C54.6837 23.6671 54.9323 23.778 55.2726 23.8872C55.4624 23.9511 55.6044 24.0015 55.6985 24.0359C55.7943 24.0721 55.9186 24.13 56.074 24.2124C56.2286 24.2938 56.3454 24.3745 56.4235 24.456C56.4991 24.54 56.5705 24.6467 56.6335 24.7811C56.6974 24.9155 56.7284 25.0634 56.7284 25.2263C56.7284 25.6296 56.5688 25.9488 56.2496 26.1882C55.932 26.4285 55.5053 26.5478 54.971 26.5478C54.3745 26.5478 53.8763 26.4201 53.4815 26.1614V25.4809C53.9855 25.7833 54.4476 25.9345 54.8676 25.9345C55.5002 25.9345 55.8169 25.7245 55.8169 25.3045C55.8169 25.2238 55.7976 25.1474 55.7607 25.0776C55.7229 25.0079 55.68 24.9516 55.6313 24.9071C55.5826 24.8634 55.5028 24.8147 55.3935 24.7576C55.2843 24.7038 55.1919 24.6626 55.118 24.6366C55.0424 24.6114 54.9264 24.5677 54.7651 24.5089C54.5299 24.4224 54.3426 24.3459 54.2048 24.2821C54.0662 24.2174 53.9293 24.1342 53.7915 24.0326C53.6529 23.9301 53.5529 23.8074 53.489 23.668C53.426 23.5285 53.395 23.3622 53.395 23.1698C53.395 22.9262 53.4538 22.7161 53.5672 22.5414C53.6814 22.365 53.831 22.239 54.0141 22.1634C54.1989 22.0878 54.3669 22.0348 54.5182 22.0071C54.6711 21.976 54.8206 21.9609 54.9718 21.9609C55.4591 21.9609 55.9245 22.0785 56.3664 22.3112L56.3647 22.3121ZM61.1255 26.4411H60.3072L60.2459 25.9345C59.7503 26.3428 59.2588 26.5478 58.7648 26.5478C58.3515 26.5478 58.0306 26.4344 57.8038 26.2101C57.5769 25.9849 57.4635 25.7018 57.4635 25.3566C57.4635 25.1751 57.4971 25.0037 57.5643 24.8357C57.629 24.6702 57.7382 24.5081 57.892 24.351C58.0432 24.1913 58.2725 24.0653 58.5808 23.9696C58.8866 23.873 59.2571 23.8251 59.6864 23.8251H60.2216V23.5898C60.2216 23.1984 60.1493 22.932 60.0065 22.7884C59.862 22.6456 59.62 22.5742 59.2823 22.5742C58.869 22.5742 58.3599 22.7455 57.7567 23.09V22.3902C58.3767 22.1046 58.9849 21.9601 59.5822 21.9601C60.1636 21.9601 60.5651 22.0802 60.7895 22.3196C61.0129 22.5582 61.1255 22.9211 61.1255 23.4033V26.4394V26.4411ZM60.2299 24.4375H59.7729C58.8304 24.4375 58.3591 24.7206 58.3591 25.286C58.3591 25.4859 58.4229 25.6287 58.5489 25.7203C58.6749 25.8094 58.8329 25.8547 59.0236 25.8547C59.2647 25.8547 59.4966 25.7959 59.7209 25.6783C59.9452 25.5632 60.1157 25.4288 60.2299 25.2767V24.4367V24.4375ZM63.3803 22.1726H64.7412L64.5245 22.7674H63.3795V25.0776C63.3795 25.6598 63.6264 25.9513 64.1187 25.9513C64.3094 25.9513 64.501 25.911 64.6967 25.8295V26.3882C64.4279 26.4932 64.107 26.5461 63.7323 26.5461C63.3022 26.5461 62.9863 26.4226 62.7855 26.1731C62.5839 25.9261 62.4831 25.6002 62.4831 25.1969V21.5929L63.3803 20.936V22.1709V22.1726Z" fill="#B6B6B6"/>
</svg>
