<svg width="48" height="48" viewBox="0 0 48 48" fill="none" xmlns="http://www.w3.org/2000/svg">
<path d="M16 31.4H17.6C18.04 31.4 18.4 31.04 18.4 30.6V23.4C18.4 22.96 18.04 22.6 17.6 22.6H16V31.4ZM31.864 25.704C31.952 25.504 32 25.288 32 25.064V24.2C32 23.32 31.28 22.6 30.4 22.6H26L26.736 18.88C26.776 18.704 26.752 18.512 26.672 18.352C26.488 17.992 26.256 17.664 25.968 17.376L25.6 17L20.472 22.128C20.168 22.432 20 22.84 20 23.264V29.536C20 30.56 20.84 31.4 21.872 31.4H28.36C28.92 31.4 29.448 31.104 29.736 30.624L31.864 25.704V25.704Z" fill="#9FA8DA"/>
</svg>
