<svg width="48" height="48" viewBox="0 0 48 48" fill="none" xmlns="http://www.w3.org/2000/svg">
<path d="M26.9091 23.3636C28.1164 23.3636 29.0836 22.3891 29.0836 21.1818C29.0836 19.9745 28.1164 19 26.9091 19C25.7018 19 24.7273 19.9745 24.7273 21.1818C24.7273 22.3891 25.7018 23.3636 26.9091 23.3636ZM21.0909 23.3636C22.2982 23.3636 23.2655 22.3891 23.2655 21.1818C23.2655 19.9745 22.2982 19 21.0909 19C19.8836 19 18.9091 19.9745 18.9091 21.1818C18.9091 22.3891 19.8836 23.3636 21.0909 23.3636ZM21.0909 24.8182C19.3964 24.8182 16 25.6691 16 27.3636V29.1818H26.1818V27.3636C26.1818 25.6691 22.7855 24.8182 21.0909 24.8182ZM26.9091 24.8182C26.6982 24.8182 26.4582 24.8327 26.2036 24.8545C27.0473 25.4655 27.6364 26.2873 27.6364 27.3636V29.1818H32V27.3636C32 25.6691 28.6036 24.8182 26.9091 24.8182Z" fill="#212121"/>
</svg>
