<svg width="113" height="25" viewBox="0 0 113 25" fill="none" xmlns="http://www.w3.org/2000/svg">
<path fill-rule="evenodd" clip-rule="evenodd" d="M21.6408 0.954712C15.0893 0.954712 9.88768 6.25512 9.88768 12.7078C9.88768 19.2592 15.1881 24.4609 21.6408 24.4609C28.1264 24.4609 33.3939 19.1605 33.3939 12.7078C33.4597 6.2222 28.0934 0.954712 21.6408 0.954712ZM21.6408 17.1193C19.2704 17.1193 17.2622 15.1111 17.2622 12.7407C17.2622 10.3703 19.2704 8.36212 21.6408 8.36212C24.0111 8.36212 26.0194 10.3703 26.0194 12.7407C26.0194 15.1111 24.077 17.1193 21.6408 17.1193Z" fill="#8B3FFF"/>
<path fill-rule="evenodd" clip-rule="evenodd" d="M9.88612 4.37866V21.498H5.6392L0.272949 4.37866H9.88612Z" fill="#8B3FFF"/>
<path fill-rule="evenodd" clip-rule="evenodd" d="M109.078 7.44031L106.478 13.8271C106.412 13.893 106.412 14.0576 106.412 14.1234L106.346 14.288L106.28 14.1234C106.28 14.0576 106.214 13.893 106.214 13.8271L103.613 7.44031H100.255L104.634 18.3703L102.757 22.5514H106.115L112.305 7.44031H109.111H109.078Z" fill="black"/>
<path fill-rule="evenodd" clip-rule="evenodd" d="M84.3868 8.03296C83.7943 7.57205 83.0371 7.27575 82.1482 7.20991C80.6667 7.0453 79.251 7.57205 78.2634 8.5597V7.37452H75.2017V18.3046H78.2634V12.5762C78.2634 11.3251 78.4938 10.9301 78.7243 10.6338C79.0864 10.0412 79.7778 9.74489 80.6008 9.74489C81.4239 9.74489 82.1482 10.107 82.5432 10.6996C82.7737 11.1605 82.8395 11.7531 82.8395 12.0494C82.8395 13.0041 82.8395 18.3046 82.8395 18.3046H85.9013V11.6873C85.9013 9.97534 85.3745 8.79016 84.4198 8.03296H84.3868Z" fill="black"/>
<path fill-rule="evenodd" clip-rule="evenodd" d="M69.41 7.50623C67.9285 6.97948 66.2824 7.04532 64.8009 7.73668C63.8462 8.19758 62.9244 8.92186 62.4305 9.90952C61.9038 10.7326 61.6733 11.7861 61.6733 12.8725C61.6733 13.9918 61.9038 15.0453 62.4305 15.8354C62.9573 16.6585 63.6157 17.3828 64.5046 17.8437C65.3935 18.3046 66.447 18.6009 67.4017 18.6009C67.9285 18.6009 68.4552 18.535 68.9491 18.3704C69.41 18.2058 69.8379 18.0741 70.2989 17.8437C71.1877 17.3169 71.9449 16.6585 72.3729 15.8354C72.8997 15.0124 73.1301 13.9589 73.1301 12.8725C73.196 10.4033 71.7803 8.32927 69.41 7.50623ZM70.2989 13.0042C70.233 13.9589 69.9367 14.7819 69.3441 15.3087C68.8832 15.6708 68.2248 15.9013 67.4017 15.9671C66.5787 15.9671 65.9861 15.7367 65.4593 15.3087C64.8668 14.7819 64.5705 13.9589 64.5046 13.0042C64.4388 11.8848 64.8668 10.9959 65.6898 10.4033C66.1507 10.107 66.7433 9.8766 67.3359 9.8766C67.9943 9.8766 68.5211 10.107 69.0478 10.4033C69.9367 10.9301 70.3976 11.8848 70.2989 13.0042Z" fill="black"/>
<path fill-rule="evenodd" clip-rule="evenodd" d="M58.1819 8.03307C57.5893 7.57216 56.8321 7.27587 55.9432 7.21002C55.7786 7.21002 55.5811 7.21002 55.4165 7.21002C54.2313 7.21002 53.1778 7.73677 52.2889 8.75735L52.1243 8.9878H51.828C51.5976 8.62566 51.3013 8.32936 51.005 8.09891C50.4124 7.63801 49.6552 7.34171 48.7663 7.27587C47.3506 7.11126 46.2313 7.57216 45.2766 8.62566V7.50632H42.2148V18.4364H45.2766V12.708V12.5434C45.2766 11.3582 45.4412 11.0619 45.6387 10.6668C46.0009 10.0742 46.6922 9.71208 47.4165 9.77792C48.1737 9.77792 48.8321 10.1401 49.1943 10.7327C49.4906 11.1936 49.4906 11.6874 49.4906 12.2141V18.3047H52.5523V12.4117C52.5523 11.2923 52.7169 10.9302 52.9144 10.5351C53.2766 9.94253 53.9679 9.64624 54.6922 9.64624C55.4494 9.64624 56.042 10.0084 56.4041 10.601C56.6346 10.9631 56.7004 11.424 56.7004 11.7203C56.7004 11.8849 56.7004 12.0166 56.7004 12.0824V18.173H59.7622V11.4899C59.7622 10.8973 59.6963 10.3047 59.5317 9.77792C59.2354 9.02072 58.7745 8.36229 58.1161 7.90138L58.1819 8.03307Z" fill="black"/>
<path fill-rule="evenodd" clip-rule="evenodd" d="M97.3259 15.0122C96.865 15.4731 95.8444 16.2632 94.4287 16.362C93.2436 16.4278 92.3547 16.0657 91.6633 15.4072C91.367 15.1109 91.1366 14.65 91.0049 14.222H99.3999V14.1562C99.4658 13.6953 99.5645 13.3332 99.5645 12.9052C99.5645 12.543 99.4987 12.0163 99.3341 11.3578C98.972 10.1068 98.2147 9.11916 97.26 8.39488C96.1407 7.57183 95.0872 7.34138 94.7909 7.34138C92.618 6.97924 90.1818 7.93397 88.8979 9.94221C88.009 11.3578 88.0748 12.7735 88.0748 13.2015C88.0748 13.7282 88.1407 15.3743 89.4905 16.8558C91.0378 18.5677 93.2106 18.6336 93.8691 18.7323C96.832 18.7982 98.8403 16.9546 99.3012 16.5595L97.2929 15.078L97.3259 15.0122ZM92.1242 10.4031C92.5851 10.1068 93.0789 9.87636 93.7703 9.87636C94.4287 9.87636 94.9555 10.1068 95.4822 10.4031C95.9431 10.7653 96.3053 11.2262 96.5357 11.7529H91.1695C91.2353 11.2262 91.6304 10.6994 92.1242 10.4031Z" fill="black"/>
</svg>
