<?xml version="1.0" encoding="UTF-8"?>
<!DOCTYPE svg PUBLIC "-//W3C//DTD SVG 1.1//EN" "http://www.w3.org/Graphics/SVG/1.1/DTD/svg11.dtd">
<!-- Creator: CorelDRAW 2019 (64-Bit) -->
<svg xmlns="http://www.w3.org/2000/svg" xml:space="preserve" width="100%" height="100%" version="1.1" style="shape-rendering:geometricPrecision; text-rendering:geometricPrecision; image-rendering:optimizeQuality; fill-rule:evenodd; clip-rule:evenodd"
viewBox="0 0 21016 5774"
 xmlns:xlink="http://www.w3.org/1999/xlink"
 xmlns:xodm="http://www.corel.com/coreldraw/odm/2003">
 <defs>
  <style type="text/css">
   <![CDATA[
    .fil7 {fill:#F5A932;fill-rule:nonzero}
    .fil6 {fill:#F9D428;fill-rule:nonzero}
    .fil8 {fill:#E33A86;fill-rule:nonzero}
    .fil0 {fill:#7A346F;fill-rule:nonzero}
    .fil2 {fill:#4EC1D7;fill-rule:nonzero}
    .fil4 {fill:#69B258;fill-rule:nonzero}
    .fil5 {fill:#49AA5C;fill-rule:nonzero}
    .fil3 {fill:#3695BE;fill-rule:nonzero}
    .fil9 {fill:#C90857;fill-rule:nonzero}
    .fil1 {fill:#EA46E3;fill-rule:nonzero}
   ]]>
  </style>
     <clipPath id="id0" style="clip-rule:nonzero">
      <path d="M2866 1478c24,-71 47,-150 87,-228l63 -118c189,-71 417,-150 685,-236 150,-55 394,-110 709,-157 433,-71 795,-63 1094,32 32,8 47,32 55,71 16,87 -16,244 -79,472 -71,244 -181,496 -323,740 -244,433 -528,780 -843,1047 -551,472 -1110,890 -1677,1244 -409,260 -780,465 -1118,622 -126,63 -197,87 -220,94 -24,16 -87,39 -213,87 -118,24 -236,32 -331,24l-63 0c-32,0 -63,0 -63,-8l-55 0c-32,0 -55,0 -63,-8 -24,0 -39,0 -55,-8 -24,0 -55,-8 -87,-24 -32,-16 -63,-24 -71,-39 -32,-47 -63,-110 -87,-189l-32 -102c-24,-63 -55,-110 -79,-150 -24,-24 -24,-24 -32,-24 -24,8 -32,63 -47,150 -24,87 -24,150 -24,197 24,157 118,315 283,457 165,142 331,220 488,236 157,24 433,-16 811,-110 850,-236 1685,-709 2504,-1409 1189,-1032 1890,-1976 2110,-2843 55,-220 47,-425 -24,-630 -150,-457 -575,-732 -1260,-654 -654,71 -1307,220 -1953,449 -8,-8 -24,-8 -24,-8 -47,-8 -110,24 -213,94 -24,8 -55,24 -63,24 -16,0 -24,8 -32,16l-228 102 -205 110 -205 110c-378,197 -677,354 -866,496 -197,134 -378,291 -551,480 -71,87 -118,150 -134,181 -8,24 24,126 55,150 71,71 110,79 283,24 110,-32 260,-110 441,-236l260 -157c8,0 291,-134 630,-283 16,-8 32,-16 63,-32 -32,63 -55,118 -63,150l-118 299c-71,157 -110,276 -134,346 -8,16 -8,39 -8,79 0,55 -16,118 -39,197l-39 134c-16,71 -24,165 -16,283 0,142 0,228 -8,260 -24,157 -24,260 -24,307 8,24 24,55 47,71 55,55 63,55 94,-8 39,-71 63,-118 71,-150 47,-71 110,-205 197,-386 87,-197 197,-409 315,-638 181,-346 307,-630 386,-850l8 -8 47 -134 -24 -8zm3063 1906c87,87 165,142 236,150 236,47 535,-118 717,-339 142,-189 268,-543 276,-732 0,-24 -24,-39 -63,-71 -126,-71 -276,-110 -457,-126 -236,-24 -457,63 -661,236 -205,165 -370,394 -465,677 -110,276 -110,512 -24,709 102,236 331,394 598,441 260,47 496,39 685,-32 165,-63 331,-165 504,-299 24,-24 55,-47 87,-71 -24,63 -39,110 -39,142 0,8 8,24 24,39 8,32 24,55 32,55l8 0 16 16c71,32 110,39 213,-39 87,-63 165,-142 236,-236 87,-126 157,-213 220,-276 55,-63 142,-173 252,-323 32,-55 110,-150 236,-307 0,8 -24,142 -24,197 -24,142 -32,213 -32,220 -24,118 -55,220 -79,299 -8,47 -47,110 -47,126 -24,71 -39,118 -32,134 0,8 16,24 32,63 8,24 16,24 24,24 8,0 8,0 8,-8 8,8 16,16 24,16 63,32 134,16 213,-55 87,-71 181,-181 283,-331l150 -220c102,-118 220,-268 370,-433l24 -39c-8,283 -16,504 -16,646 0,228 102,386 307,472 134,63 299,24 496,-110 102,-71 228,-197 386,-362l8 -8c-16,142 0,283 39,433 102,354 362,465 709,283 118,-63 307,-268 567,-606 8,0 63,-16 157,-39 102,-24 197,-55 276,-87 39,-16 79,-32 110,-47 -8,24 -8,47 -8,63 -79,402 0,772 268,890 118,55 220,87 307,110 205,47 394,-16 575,-173 63,-55 220,-236 480,-535 102,228 331,386 598,433 260,47 496,39 685,-32 165,-63 331,-165 504,-299 87,-63 197,-173 339,-315 79,-87 150,-181 213,-283l8 -8c87,157 205,307 354,457l-220 110c-339,236 -591,457 -756,654 -189,236 -236,488 -157,748 63,142 173,244 354,323 339,157 717,39 1110,-354 378,-378 472,-850 228,-1370 220,-134 417,-276 614,-417 79,-63 142,-110 189,-150 -24,94 -39,165 -47,213 -79,402 0,772 268,890 118,55 220,87 307,110 205,47 394,-16 575,-173 71,-63 283,-299 622,-701 24,-32 71,-94 150,-181 79,-94 142,-165 173,-228 24,-24 39,-94 71,-197 8,-8 0,-39 -8,-39 -16,8 -32,24 -63,55 -110,102 -189,165 -236,213l-244 213 -323 260c-87,63 -173,134 -260,197 -252,189 -409,276 -472,260 -63,-24 -71,-173 -47,-465 24,-228 87,-528 197,-898 110,-370 236,-693 362,-968 24,-79 47,-126 63,-150l961 -118c150,-24 457,-134 606,-220l165 -181c-441,-32 -945,-24 -1528,39 0,0 189,-386 197,-417 55,-110 87,-205 110,-268 8,-24 8,-39 -16,-63 -63,-63 -110,-102 -142,-94 -71,16 -157,71 -260,173 -150,150 -260,307 -339,480 -39,87 -79,220 -118,220 -8,8 -87,24 -236,55 -150,32 -236,47 -236,55 -39,24 -307,79 -307,102 -32,79 24,213 102,268 24,16 102,32 236,55 134,24 205,24 213,16 -39,71 -134,346 -283,811 -39,134 -79,252 -110,354 -220,94 -535,244 -953,465l-165 94 -110 -142c-220,-276 -299,-488 -228,-646 71,-165 157,-244 370,-386 32,-32 205,-118 236,-94 32,63 79,307 -110,504 -47,47 -87,94 -110,126 -79,110 -63,165 47,157 142,-8 283,-79 449,-213 94,-142 134,-291 118,-472 -32,-228 -134,-370 -283,-417 -189,-71 -409,-32 -654,110 -244,142 -433,323 -551,535 -47,79 -32,236 39,449 -24,16 -39,39 -63,63 -142,126 -252,213 -323,268 -394,315 -764,480 -1110,512 -71,8 -150,-24 -213,-94 -142,-134 -150,-283 -71,-496 87,87 165,142 236,150 236,47 535,-118 717,-339 142,-189 268,-543 276,-732 0,-24 -24,-39 -63,-71 -126,-71 -276,-110 -457,-126 -236,-24 -457,63 -661,236 -205,165 -370,394 -465,677 -63,150 -87,291 -87,425l-276 220c-87,63 -173,134 -260,197 -252,189 -409,276 -472,260 -63,-24 -71,-173 -47,-465 24,-228 87,-528 197,-898 110,-370 236,-693 362,-968 24,-79 47,-126 63,-150l961 -118c150,-24 457,-134 606,-220l165 -181c-441,-32 -945,-24 -1528,39 0,0 189,-386 197,-417 55,-110 87,-205 110,-268 8,-24 8,-39 -16,-63 -63,-63 -110,-102 -142,-94 -71,16 -157,71 -260,173 -150,150 -260,307 -339,480 -39,87 -79,220 -118,220 -8,8 -87,24 -236,55 -150,32 -236,47 -236,55 -39,24 -307,79 -307,102 -32,79 24,213 102,268 24,16 102,32 236,55 134,24 205,24 213,16 -39,71 -134,346 -283,811 -63,205 -118,386 -157,528 -47,16 -79,32 -110,39 -47,24 -118,39 -205,63 -87,24 -126,24 -134,24 189,-425 189,-646 32,-984 -63,-118 -236,-150 -512,-94 -276,63 -504,165 -669,323 -94,87 -181,197 -252,323 -71,134 -110,228 -118,276 0,24 0,47 8,79 -339,252 -583,402 -732,457 32,-16 55,-197 63,-559 8,-283 -16,-480 -71,-606 -87,-189 -236,-291 -449,-315l-16 8c-39,32 -134,150 -283,331 0,24 -63,63 -102,126 8,-71 24,-165 24,-291 8,-197 -142,-354 -402,-346 -47,0 -102,24 -157,71 -87,79 -189,205 -283,378 39,-205 47,-362 24,-472 -8,-102 -16,-110 -118,-134 -63,-16 -118,0 -181,39 -47,39 -87,102 -110,173l-63 165c-24,32 -32,63 -39,94 -32,94 -55,173 -55,236l-24 110c-8,32 -24,110 -24,110l-63 228c-32,94 -55,157 -63,205 -8,8 -8,16 -8,32 -71,63 -134,110 -181,142 -394,315 -764,480 -1110,512 -71,8 -150,-24 -213,-94 -142,-134 -150,-283 -71,-496l-47 -39zm756 -843c32,32 24,102 -32,189 -32,55 -63,110 -87,150 -126,197 -268,299 -433,323 -24,0 -63,-8 -110,-24l55 -71c87,-142 228,-276 417,-417l189 -150zm4890 835c-150,-24 -276,-63 -386,-118 -24,-16 -39,-47 -39,-94 0,-102 102,-197 236,-339 126,-134 276,-220 441,-260 55,-16 79,-16 87,0 32,102 -79,370 -339,811l0 0zm-465 512c-47,-94 -47,-173 -8,-244 39,24 102,47 181,71 -24,47 -63,102 -150,157l-8 0 -24 16 8 0zm4197 -1346c32,32 24,102 -32,189 -32,55 -63,110 -87,150 -126,197 -268,299 -433,323 -24,0 -63,-8 -110,-24l55 -71c87,-142 228,-276 417,-417l189 -150zm1756 1630c71,165 63,339 -32,504 -63,110 -189,244 -354,402 -165,150 -307,236 -409,276 -110,32 -181,24 -205,-24 -32,-32 -24,-110 39,-236 63,-118 134,-220 220,-307 236,-236 480,-433 740,-614z"/>
     </clipPath>
 </defs>
 <g id="Layer_x0020_1">
  <metadata id="CorelCorpID_0Corel-Layer"/>
  <g id="_2584246149760">
   <g>
    <g style="clip-path:url(#id0)">
     <polygon class="fil0" points="20387,-2547 20411,-2401 -644,1035 -667,888 "/>
     <polygon id="1" class="fil1" points="20389,-2538 20456,-2127 -599,1309 -666,898 "/>
     <polygon id="2" class="fil0" points="20433,-2264 20501,-1853 -554,1583 -621,1172 "/>
     <polygon id="3" class="fil2" points="20478,-1990 20545,-1579 -509,1857 -577,1446 "/>
     <polygon id="4" class="fil3" points="20523,-1716 20590,-1305 -465,2131 -532,1720 "/>
     <polygon id="5" class="fil4" points="20568,-1442 20635,-1031 -420,2405 -487,1994 "/>
     <polygon id="6" class="fil5" points="20612,-1168 20679,-757 -375,2679 -442,2268 "/>
     <polygon id="7" class="fil6" points="20657,-894 20724,-483 -331,2953 -398,2542 "/>
     <polygon id="8" class="fil7" points="20702,-620 20769,-208 -286,3227 -353,2816 "/>
     <polygon id="9" class="fil8" points="20746,-346 20814,66 -241,3501 -308,3090 "/>
     <polygon id="10" class="fil9" points="20791,-71 20858,340 -196,3775 -263,3364 "/>
     <polygon id="11" class="fil8" points="20836,203 20903,614 -152,4049 -219,3638 "/>
     <polygon id="12" class="fil7" points="20881,477 20948,888 -107,4323 -174,3912 "/>
     <polygon id="13" class="fil6" points="20925,751 20992,1162 -62,4597 -129,4186 "/>
     <polygon id="14" class="fil5" points="20970,1025 21037,1436 -18,4871 -85,4460 "/>
     <polygon id="15" class="fil4" points="21015,1299 21082,1710 27,5145 -40,4734 "/>
     <polygon id="16" class="fil3" points="21059,1573 21127,1984 72,5419 5,5008 "/>
     <polygon id="17" class="fil2" points="21104,1847 21171,2258 117,5694 50,5282 "/>
     <polygon id="18" class="fil0" points="21149,2121 21216,2532 161,5968 94,5556 "/>
     <polygon id="19" class="fil1" points="21194,2395 21261,2806 206,6242 139,5831 "/>
     <polygon id="20" class="fil0" points="21238,2669 21305,3080 251,6516 184,6105 "/>
     <polygon id="21" class="fil2" points="21283,2943 21350,3354 295,6790 228,6379 "/>
     <polygon id="22" class="fil3" points="21328,3217 21395,3628 340,7064 273,6653 "/>
     <polygon id="23" class="fil4" points="21373,3491 21440,3902 385,7338 318,6927 "/>
     <polygon id="24" class="fil5" points="21417,3765 21484,4176 430,7612 363,7201 "/>
     <polygon id="25" class="fil6" points="21462,4039 21529,4450 474,7886 407,7475 "/>
     <polygon id="26" class="fil7" points="21507,4313 21574,4724 519,8160 452,7749 "/>
     <polygon id="27" class="fil8" points="21551,4587 21618,4998 564,8434 497,8023 "/>
     <polygon id="28" class="fil9" points="21596,4861 21663,5272 609,8708 541,8297 "/>
     <polygon id="29" class="fil8" points="21641,5135 21621,5011 566,8446 586,8571 "/>
    </g>
   </g>
  </g>
 </g>
</svg>
