<svg xmlns="http://www.w3.org/2000/svg" fill="none" viewBox="0 0 75 64">
  <defs/>
  <path fill="#fff" d="M74.822 0v64H0V0h74.822zm-3.563 3.563H3.563v56.874h67.696V3.563z"/>
  <path fill="#fff" d="M13.487 14.024c.487 0 .886-.364.886-.874 0-.504-.382-.872-.886-.872a.866.866 0 00-.884.876c0 .506.4.87.884.87zm0-.266c-.345 0-.591-.261-.591-.608 0-.364.251-.61.59-.61.357 0 .595.263.595.61 0 .363-.247.608-.594.608zm2.19.235h.705c.18 0 .326-.05.423-.145a.472.472 0 00.15-.361.438.438 0 00-.185-.378.636.636 0 00-.388-.111h-.42v-.435h.808v-.257h-1.095v1.685l.002.002zm.287-.257v-.487h.39c.169 0 .314.043.314.24 0 .188-.134.247-.31.247h-.394zm4.461.646h.288v-.648h-.207v-1.425h-.288v1.425h-.688v-1.425h-.288v1.425h-.71v-1.425h-.285v1.684h2.178v.39zm1.551-.39h1.138v-.258h-.85v-.477h.67v-.25h-.67v-.444h.831v-.257h-1.119v1.687zm3.13.032a.8.8 0 00.69-.337l-.212-.176c-.118.142-.247.247-.47.247-.35 0-.584-.266-.584-.608 0-.357.24-.61.586-.61.214 0 .35.11.464.249l.206-.186a.792.792 0 00-.667-.33.859.859 0 00-.88.877c0 .494.386.869.868.869v.005zm2.333-.031h.276v-1.42h.546v-.264h-1.368v.264h.549v1.42h-.003zm2.048 0h.75c.29 0 .528-.176.528-.48a.436.436 0 00-.314-.43.388.388 0 00.164-.328c0-.299-.247-.449-.522-.449h-.608v1.685l.002.002zm.285-.984v-.437h.285c.18 0 .268.088.268.219 0 .138-.102.218-.26.218h-.293zm0 .727v-.482h.416c.18 0 .285.098.285.24 0 .152-.105.242-.285.242h-.416zm2.264.257h1.137v-.259h-.85v-.477h.67v-.25h-.67v-.444h.831v-.257h-1.118v1.687zm2.444 0h.287v-.725h.841v.725h.288v-1.684h-.288v.689h-.84v-.69h-.288v1.685zm2.805 0h.287v-.725h.841v.725h.288v-1.684h-.288v.689h-.84v-.69h-.288v1.685zm3.603.03c.487 0 .886-.363.886-.873 0-.504-.382-.872-.886-.872a.866.866 0 00-.883.876c0 .506.399.87.883.87zm0-.265c-.344 0-.591-.261-.591-.608 0-.364.252-.61.591-.61.357 0 .594.263.594.61 0 .363-.247.608-.594.608zm2.19.235h1.138v-.259h-.85v-.477h.67v-.25h-.67v-.444h.831v-.257h-1.119v1.687zM12.57 17.682h.285v-.39h1.126v.39h.287v-.653h-.209v-1.42h-1.05v.27c0 .656-.111.964-.341 1.15h-.098v.653zm.437-.653c.242-.271.287-.673.287-1.117v-.045h.48v1.162h-.767zm2.513.263h.75c.29 0 .528-.176.528-.48a.436.436 0 00-.313-.43.389.389 0 00.163-.327c0-.3-.247-.45-.522-.45h-.608v1.685l.002.002zm.285-.983v-.437h.285c.18 0 .269.088.269.218 0 .138-.103.219-.262.219h-.292zm0 .727v-.483h.416c.18 0 .285.098.285.24 0 .152-.105.243-.285.243h-.416zm2.264.292h.088l1.071-1.164v1.128h.285v-1.72h-.08l-1.08 1.174v-1.138h-.284v1.72zm2.608-.036h.366l.627-.734h.104v.734h.288v-.734h.107l.624.734h.366l-.731-.86.684-.821h-.359l-.59.698h-.101v-.699h-.288v.699h-.102l-.589-.699h-.356l.68.822-.73.86zm3.644 0h1.137v-.259h-.85v-.477h.67v-.25h-.67v-.444h.831v-.256h-1.118v1.686zm2.444 0h.287v-.724h.841v.724h.287v-1.684h-.287v.689h-.84v-.689h-.288v1.684zm2.805.036h.088l1.071-1.164v1.128h.285v-1.72h-.08l-1.079 1.174v-1.138h-.285v1.72zm2.834-.036h1.138v-.259h-.85v-.477h.669v-.25h-.67v-.444h.832v-.256h-1.12v1.686z"/>
  <path fill="#fff" fill-rule="evenodd" d="M12.498 52.773v-8.418l49.922-7.908v8.418l-49.922 7.908z" clip-rule="evenodd"/>
  <path fill="#fff" d="M21.03 35.87l3.875-.615-.01-14.451-12.294 1.948.01 14.45 3.871-.612.007-10.772 4.546-.722-.004 10.774zM31.85 23.04c-3.359.53-5.739 3.492-5.195 6.928.497 3.117 3.174 4.751 6.195 4.271 3.375-.532 5.796-3.503 5.257-6.919-.497-3.138-3.197-4.767-6.254-4.28h-.003zm-1.432 6.128c-.202-1.25.435-2.51 1.746-2.717 1.154-.18 2.005.58 2.183 1.689.201 1.273-.442 2.472-1.775 2.684-1.192.187-1.974-.504-2.154-1.656zM43.52 22.166l-.014-.731-3.675.584.01 15.245 3.753-.594-.003-5.292c.692.624 1.646.878 3.017.662 3.375-.537 5.273-3.727 4.777-6.864-.466-2.94-2.796-4.791-5.416-4.376a4.172 4.172 0 00-2.451 1.364l.002.002zm.048 4.922c-.197-1.25.449-2.554 1.8-2.77 1.173-.188 2.048.59 2.228 1.722.204 1.29-.48 2.518-1.829 2.732-1.211.19-2.014-.516-2.2-1.687v.003zM57.373 18.998c-1.848.292-3.375 1.183-4.591 2.636l1.957 1.932c.696-.72 1.563-1.307 2.437-1.445.456-.073.85-.014 1.15.186.318.213.465.496.53.914.016.098.025.278.018.506l-.01.325c-.633-.408-1.465-.52-2.536-.351-2.266.359-4.174 1.945-3.83 4.13.345 2.167 2.338 2.908 4.063 2.635.971-.155 1.833-.637 2.508-1.395v.775l3.456-.551-.005-6.067c.003-.487-.01-.831-.066-1.19-.418-2.641-2.38-3.47-5.081-3.04zm.195 8.682c-.658.104-1.257-.088-1.34-.625-.095-.596.61-1.033 1.264-1.136.677-.106 1.27.164 1.387.533v.244c-.095.442-.596.87-1.311.984z"/>
</svg>
