<svg width="75" height="19" viewBox="0 0 75 19" fill="none" xmlns="http://www.w3.org/2000/svg">
<path fill-rule="evenodd" clip-rule="evenodd" d="M6.99099 4.6983H12.0479C14.7614 4.6983 15.7868 6.07265 15.6283 8.09189C15.3675 11.4256 13.3518 13.2686 10.6771 13.2686H9.32034C8.95384 13.2686 8.70717 13.5118 8.60849 14.1708L8.03409 17.9943C7.99532 18.241 7.86494 18.3854 7.67112 18.4066H4.49249C4.19295 18.4066 4.08723 18.1775 4.16476 17.6842L6.10295 5.42424C6.18047 4.93089 6.4483 4.6983 6.99099 4.6983Z" fill="#009EE3"/>
<path fill-rule="evenodd" clip-rule="evenodd" d="M28.9372 4.46936C30.6429 4.46936 32.2181 5.39617 32.0031 7.70437C31.7423 10.446 30.2728 11.9613 27.9576 11.9684H25.9348C25.6423 11.9684 25.5014 12.2045 25.4274 12.6943L25.0362 15.1822C24.9763 15.5593 24.786 15.7461 24.497 15.7461H22.6117C22.3122 15.7461 22.2065 15.5523 22.2734 15.1259L23.8275 5.14596C23.905 4.65613 24.0883 4.47288 24.423 4.47288H28.9372V4.46936ZM25.8679 9.81171H27.4008C28.3593 9.77647 28.9972 9.11044 29.0641 7.91229C29.1029 7.17225 28.6025 6.64365 27.8096 6.64718L26.3647 6.65423L25.8714 9.81171H25.8679ZM37.1199 14.9779C37.2926 14.8228 37.4688 14.7418 37.4406 14.932L37.3807 15.3937C37.349 15.6368 37.4441 15.7637 37.6697 15.7637H39.3436C39.6255 15.7637 39.7629 15.6474 39.8334 15.214L40.8659 8.74042C40.9152 8.41621 40.8377 8.25763 40.591 8.25763H38.7515C38.5859 8.25763 38.5048 8.35278 38.4626 8.60651L38.3956 9.00472C38.3604 9.21263 38.2652 9.24787 38.1771 9.03996C37.8635 8.29992 37.0706 7.96867 35.957 7.99686C33.3739 8.04972 31.6366 10.0091 31.4498 12.5216C31.3054 14.4634 32.6973 15.9892 34.5333 15.9892C35.8619 15.9892 36.4609 15.5981 37.1305 14.9814L37.127 14.9779H37.1199ZM35.7209 13.9806C34.6109 13.9806 33.8356 13.0925 33.9977 12.0071C34.1598 10.9218 35.1958 10.0337 36.3094 10.0337C37.4195 10.0337 38.1947 10.9182 38.0326 12.0071C37.8705 13.0961 36.8345 13.9806 35.7209 13.9806ZM44.1432 8.23649H42.4517C42.0993 8.23649 41.9583 8.49727 42.0711 8.81795L44.1784 14.9884L42.1028 17.9239C41.9302 18.1671 42.0641 18.3926 42.3072 18.3926H44.2137C44.2348 18.3961 44.2595 18.3961 44.2806 18.3961C44.485 18.3961 44.6753 18.2904 44.781 18.1142L51.2581 8.81795C51.459 8.53251 51.3638 8.23297 51.0361 8.23297H49.2318C48.9217 8.23297 48.7984 8.35278 48.6222 8.61356L45.9193 12.5287L44.7141 8.60651C44.6436 8.3704 44.4674 8.24002 44.1432 8.24002V8.23649Z" fill="#113984"/>
<path fill-rule="evenodd" clip-rule="evenodd" d="M58.0026 4.46936C59.7117 4.46936 61.2834 5.39617 61.0684 7.70437C60.8147 10.446 59.3382 11.9613 57.0229 11.9684H55.0001C54.7077 11.9684 54.5667 12.2045 54.4927 12.6943L54.1015 15.1823C54.0416 15.5593 53.8513 15.7461 53.5624 15.7461H51.6806C51.381 15.7461 51.2753 15.5523 51.3423 15.1259L52.8999 5.14596C52.9739 4.65613 53.1606 4.47288 53.4954 4.47288H58.0026V4.46936ZM54.9367 9.81171H56.4696C57.4282 9.77647 58.066 9.11044 58.133 7.91229C58.1717 7.17225 57.6713 6.64366 56.8749 6.64718L55.4301 6.65423L54.9367 9.81171ZM66.1888 14.9779C66.3614 14.8228 66.5376 14.7418 66.5095 14.9321L66.4495 15.3937C66.4178 15.6368 66.513 15.7637 66.7385 15.7637H68.4124C68.6943 15.7637 68.8318 15.6474 68.9022 15.214L69.9348 8.74042C69.9876 8.41622 69.9101 8.25764 69.6599 8.25764H67.8204C67.6547 8.25764 67.5737 8.35278 67.5314 8.60651L67.4645 9.00472C67.4292 9.21264 67.3341 9.24788 67.246 9.03996C66.9323 8.29993 66.1394 7.96867 65.0188 7.99686C62.4393 8.04972 60.6984 10.0091 60.5116 12.5217C60.3672 14.4634 61.7591 15.9892 63.5951 15.9892C64.9272 15.9892 65.5227 15.5981 66.1923 14.9814V14.9779H66.1888ZM64.7898 13.9806C63.6797 13.9806 62.9044 13.0925 63.0665 12.0072C63.2286 10.9218 64.2647 10.0337 65.3783 10.0337C66.4883 10.0337 67.2636 10.9182 67.1015 12.0072C66.9394 13.0961 65.9033 13.9806 64.7898 13.9806ZM72.5073 15.7743H70.5761C70.5726 15.7743 70.5691 15.7743 70.562 15.7743C70.4352 15.7743 70.333 15.6721 70.333 15.5452C70.333 15.5311 70.333 15.517 70.3365 15.5065L72.0351 4.7548C72.0703 4.60327 72.2007 4.49755 72.3557 4.49403H74.2869C74.2904 4.49403 74.2939 4.49403 74.2974 4.49403C74.4243 4.49403 74.523 4.59622 74.523 4.71956C74.523 4.73013 74.523 4.74423 74.5195 4.7548L72.8209 15.5065C72.7927 15.6615 72.6588 15.7743 72.5002 15.7778V15.7743H72.5073Z" fill="#009EE3"/>
<path fill-rule="evenodd" clip-rule="evenodd" d="M3.81946 0.476685H8.88342C10.3071 0.476685 11.9986 0.522496 13.1298 1.51978C13.8839 2.18581 14.2822 3.24653 14.1905 4.39182C13.8804 8.25763 11.5652 10.4213 8.46759 10.4213H5.96909C5.54621 10.4213 5.26429 10.7033 5.14448 11.4644L4.44673 15.8976C4.40092 16.1831 4.27758 16.3557 4.05557 16.3769H0.933326C0.587976 16.3769 0.464637 16.1161 0.55626 15.5382L2.80103 1.31892C2.89266 0.748031 3.20629 0.476685 3.82299 0.476685H3.81946Z" fill="#113984"/>
<path fill-rule="evenodd" clip-rule="evenodd" d="M5.22198 11.0169L6.1065 5.42082C6.18403 4.92747 6.45185 4.69489 6.9875 4.69489H12.0444C12.8796 4.69489 13.5597 4.82527 14.0883 5.06843C13.5809 8.50783 11.3537 10.4214 8.43938 10.4214H5.94792C5.61315 10.4214 5.36999 10.587 5.22198 11.0169Z" fill="#172C70"/>
</svg>
